<?xml version="1.0" standalone="no"?>
<!DOCTYPE svg PUBLIC "-//W3C//DTD SVG 20010904//EN"
 "http://www.w3.org/TR/2001/REC-SVG-20010904/DTD/svg10.dtd">
<svg version="1.0" xmlns="http://www.w3.org/2000/svg"
 width="600.000000pt" height="600.000000pt" viewBox="0 0 600.000000 600.000000"
 preserveAspectRatio="xMidYMid meet">
<g transform="translate(0.000000,600.000000) scale(0.100000,-0.100000)"
fill="#000000" stroke="none">
<path d="M3045 4389 c-307 -42 -635 -214 -835 -438 -110 -122 -212 -273 -259
-384 -29 -68 -11 -57 23 14 47 100 125 208 221 304 174 177 346 276 587 340
474 125 995 -50 1299 -435 161 -205 245 -413 271 -673 52 -510 -224 -1011
-682 -1242 -436 -219 -933 -179 -1330 108 -135 98 -298 292 -366 436 -34 71
-52 82 -23 14 74 -172 243 -390 402 -518 573 -462 1376 -410 1887 121 186 194
313 439 367 711 23 121 23 385 0 506 -58 292 -184 527 -396 737 -202 201 -402
311 -681 376 -120 28 -364 40 -485 23z m370 -32 c17 -3 49 -9 73 -15 23 -5 53
-8 65 -5 18 4 19 3 7 -7 -12 -9 -9 -11 17 -8 18 3 30 1 27 -3 -2 -4 18 -12 46
-18 28 -6 83 -27 124 -46 41 -19 79 -35 86 -35 6 0 8 -5 4 -12 -5 -8 -2 -9 9
-5 10 3 17 3 17 -2 0 -5 12 -12 28 -16 15 -3 39 -18 55 -33 15 -14 27 -23 27
-19 0 8 33 -18 68 -53 14 -14 22 -18 17 -10 -7 14 9 0 82 -71 18 -17 30 -36
26 -42 -3 -6 -1 -7 5 -3 6 4 19 -3 29 -15 65 -79 98 -114 106 -111 4 1 6 -2 2
-8 -3 -5 -2 -10 3 -10 5 0 9 -10 8 -22 -1 -14 4 -22 12 -20 7 1 15 -6 19 -15
3 -10 15 -28 27 -41 12 -13 20 -27 19 -30 -5 -13 8 -42 18 -42 6 0 8 -4 5 -9
-4 -5 -3 -11 1 -13 8 -3 45 -75 49 -94 1 -6 9 -27 17 -45 18 -39 52 -171 72
-277 10 -51 7 -372 -3 -422 -6 -25 -15 -69 -21 -98 -6 -29 -22 -85 -36 -125
-15 -40 -27 -76 -29 -82 -6 -22 -41 -90 -49 -93 -4 -2 -5 -8 -1 -13 3 -5 1 -9
-4 -9 -8 0 -20 -28 -20 -47 0 -3 -5 -9 -10 -12 -5 -3 -17 -21 -26 -39 -10 -20
-21 -30 -29 -26 -7 4 -9 4 -5 -1 4 -4 3 -14 -3 -22 -6 -7 -9 -13 -6 -13 4 0
-15 -23 -40 -50 -26 -28 -53 -59 -60 -70 -31 -43 -174 -174 -188 -170 -3 1
-16 -9 -29 -23 -12 -13 -36 -30 -53 -37 -17 -8 -30 -17 -27 -21 2 -4 -8 -10
-23 -14 -16 -3 -30 -10 -33 -14 -10 -15 -186 -90 -237 -102 -29 -7 -50 -15
-48 -19 2 -4 -7 -5 -22 -2 -16 3 -24 1 -20 -6 4 -6 -6 -10 -26 -10 -17 -1 -63
-8 -101 -16 -83 -18 -339 -16 -431 3 -33 7 -71 14 -85 16 -14 2 -27 5 -30 6
-3 1 -9 3 -15 3 -11 2 -65 22 -112 42 -17 8 -36 14 -42 14 -17 0 -101 43 -101
52 0 4 -5 8 -11 8 -5 0 -7 -6 -3 -12 4 -7 3 -9 -1 -5 -5 4 -10 14 -11 21 -1
11 5 11 32 3 19 -6 34 -14 34 -18 0 -5 7 -5 17 -2 12 5 14 3 8 -7 -5 -9 -4
-11 4 -6 6 4 18 2 26 -4 8 -7 15 -10 15 -6 0 3 16 0 35 -8 20 -9 52 -18 73
-20 20 -3 66 -10 102 -15 63 -8 314 -6 330 4 4 3 40 9 79 15 40 5 88 18 109
27 20 9 42 17 47 18 6 0 16 4 23 8 6 5 17 5 22 2 6 -3 10 -1 10 6 0 7 3 10 6
6 9 -8 98 32 107 49 5 8 13 12 18 8 5 -3 24 5 42 18 18 13 45 29 60 36 17 7
25 17 21 24 -4 7 -3 8 4 4 7 -4 12 -2 12 4 0 7 7 9 17 6 10 -4 14 -4 11 0 -7
6 44 54 57 54 4 0 19 12 33 28 14 15 39 37 56 50 16 12 26 22 21 22 -5 0 0 6
11 14 10 8 19 20 19 28 0 7 5 13 12 13 6 0 30 24 53 52 23 29 39 53 35 53 -3
0 5 12 19 27 14 15 23 30 20 35 -3 4 0 8 5 8 6 0 11 5 11 11 0 6 9 23 20 39
11 15 17 30 13 34 -3 3 -1 6 6 6 8 0 11 6 7 16 -3 8 -2 12 4 9 6 -3 10 -1 10
5 0 7 6 26 14 43 21 47 61 171 58 181 -2 4 2 13 7 20 13 16 39 218 39 306 0
102 -24 270 -50 355 -12 39 -23 72 -23 75 -1 3 -10 23 -20 45 -21 46 -22 49
-24 71 0 8 -5 12 -11 9 -6 -3 -7 1 -4 9 4 10 1 16 -7 16 -7 0 -9 3 -6 6 4 4
-2 19 -13 34 -11 16 -20 33 -20 39 0 6 -4 11 -10 11 -5 0 -10 6 -10 13 0 8 -9
22 -20 32 -10 9 -18 20 -17 24 1 3 -12 24 -28 46 -36 47 -71 86 -60 65 5 -9 4
-12 -1 -7 -5 5 -9 13 -9 18 0 5 -21 29 -47 53 -27 25 -48 49 -48 55 0 6 -6 11
-14 11 -13 0 -39 19 -131 95 -16 14 -34 25 -41 25 -6 0 -19 9 -29 20 -10 12
-25 18 -32 15 -9 -3 -11 0 -7 7 5 8 2 9 -9 5 -9 -3 -20 -1 -24 6 -11 16 -79
47 -104 47 -11 0 -17 4 -14 10 3 5 0 7 -8 4 -8 -3 -18 0 -22 5 -3 6 -10 9 -15
6 -5 -3 -20 1 -32 9 -13 8 -50 19 -83 26 -33 6 -80 16 -105 21 -25 5 -110 10
-190 11 -155 2 -237 -9 -354 -48 -38 -13 -73 -21 -78 -18 -4 3 -8 1 -8 -3 0
-11 -62 -35 -69 -26 -3 3 0 8 7 10 6 3 10 8 8 12 -3 4 4 8 15 8 11 1 36 12 56
24 20 13 47 24 61 25 14 2 30 8 35 13 6 6 19 11 30 11 10 0 28 5 40 12 12 7
31 13 42 14 11 2 67 11 125 22 99 18 306 23 405 9z"/>
<path d="M1570 3293 c-27 -25 -39 -59 -109 -298 -43 -148 -81 -279 -84 -290
-7 -19 -3 -20 100 -18 78 1 109 6 112 15 2 7 21 82 41 166 l36 153 93 -152
c105 -170 130 -193 199 -186 24 3 51 12 61 21 10 9 58 81 107 161 49 80 91
145 94 145 3 0 22 -73 44 -163 l39 -162 106 0 107 0 -68 235 c-38 129 -76 259
-84 288 -23 77 -49 104 -110 109 -44 5 -53 2 -80 -23 -16 -16 -72 -99 -124
-184 -51 -85 -96 -159 -100 -163 -4 -5 -51 63 -104 150 -53 87 -102 165 -109
173 -44 56 -119 66 -167 23z m710 -6 c0 9 50 -50 52 -62 0 -5 2 -14 3 -20 1
-5 12 -44 24 -85 13 -41 23 -77 23 -80 0 -3 5 -16 10 -30 6 -14 11 -34 13 -45
2 -11 13 -47 24 -80 12 -32 23 -68 26 -80 2 -11 7 -35 11 -52 l7 -33 -75 0
-74 0 -14 53 c-19 73 -21 79 -22 105 0 12 -5 22 -10 22 -5 0 -7 4 -4 9 3 4 -3
32 -14 62 -11 29 -20 54 -20 55 0 1 -9 4 -20 7 -13 3 -18 1 -13 -6 4 -7 0 -8
-11 -4 -9 4 -15 3 -11 -2 3 -5 -2 -17 -11 -25 -8 -9 -13 -16 -10 -16 3 0 -4
-11 -15 -24 -12 -13 -21 -28 -21 -33 1 -4 -8 -17 -18 -28 -10 -11 -24 -31 -30
-45 -14 -32 -33 -64 -48 -82 -6 -8 -8 -19 -4 -24 4 -5 3 -6 -2 -2 -4 4 -17 -2
-29 -13 -24 -22 -66 -25 -86 -6 -11 10 -13 9 -7 -3 4 -8 0 -6 -9 5 -9 11 -21
19 -26 17 -6 -1 -8 1 -5 6 3 5 -7 26 -23 48 -16 21 -26 45 -23 53 4 10 1 13
-11 8 -9 -3 -16 -3 -15 1 3 10 -84 155 -102 169 -27 21 -51 -2 -65 -64 -2 -10
-14 -54 -25 -98 -12 -44 -25 -96 -30 -115 l-9 -35 -74 0 -73 0 9 40 c6 22 21
76 34 120 14 44 26 89 27 100 2 11 8 30 14 42 7 12 11 26 10 30 -3 12 42 155
57 184 8 14 12 29 9 31 -7 8 54 28 83 28 13 0 26 -7 29 -15 4 -8 10 -12 15 -9
5 3 9 1 9 -5 0 -6 10 -20 23 -32 12 -12 15 -18 7 -14 -8 5 -5 -3 8 -17 12 -13
22 -29 22 -36 0 -6 8 -15 18 -21 9 -5 17 -13 16 -18 -2 -17 9 -43 16 -38 10 6
31 -51 22 -61 -4 -4 -2 -4 5 0 7 3 14 -2 18 -14 3 -11 11 -20 16 -20 6 0 8 -4
5 -8 -6 -9 40 -62 54 -62 16 0 40 12 40 21 0 5 8 18 18 29 9 11 17 24 18 28 0
4 4 15 9 25 6 15 10 16 17 5 7 -9 8 -7 5 9 -3 14 1 24 11 28 8 3 12 8 8 12 -3
4 6 20 21 36 16 17 21 26 13 22 -8 -5 -6 3 6 16 12 13 33 45 48 71 25 42 49
64 69 60 4 -1 7 2 7 8 0 6 9 6 25 0 14 -5 25 -7 25 -3z"/>
<path d="M3005 3310 l-330 -5 -47 -28 c-113 -66 -130 -187 -38 -271 63 -56
113 -66 350 -66 170 0 209 -3 228 -16 12 -8 22 -21 22 -29 0 -8 -10 -21 -22
-29 -19 -13 -62 -16 -268 -16 l-245 0 -63 -80 c-34 -44 -62 -81 -62 -82 0 -2
152 -1 337 2 328 5 339 6 385 28 90 44 126 110 115 208 -6 57 -41 102 -108
139 l-54 30 -225 5 c-217 5 -225 6 -225 25 0 19 8 20 236 23 l236 2 62 80 c60
77 69 92 54 88 -5 -1 -156 -5 -338 -8z m278 -40 c-21 -18 -58 -72 -55 -82 1
-4 -96 -7 -216 -8 -219 -1 -268 -3 -278 -12 -16 -16 -12 -58 7 -79 11 -13 17
-17 13 -9 -6 12 -5 13 7 3 9 -7 73 -12 189 -12 96 -1 191 -4 210 -7 44 -7 120
-37 120 -46 0 -5 7 -8 16 -8 8 0 12 -4 9 -10 -3 -5 -2 -10 3 -10 12 0 30 -47
33 -85 4 -52 -11 -94 -44 -120 -18 -14 -38 -30 -44 -36 -7 -5 -13 -7 -13 -3 0
3 -6 2 -12 -4 -12 -9 -95 -28 -110 -24 -3 1 -124 2 -267 2 l-261 1 37 45 c37
43 45 48 72 45 7 -2 11 1 8 6 -3 4 96 7 220 6 164 -2 229 1 240 10 38 31 53
48 53 60 0 18 -40 62 -63 70 -9 4 -116 7 -237 7 -126 1 -222 5 -226 11 -3 5
-10 7 -15 3 -6 -3 -17 2 -25 12 -9 11 -12 12 -8 4 4 -8 -8 -1 -29 15 -64 53
-76 131 -28 189 9 10 15 21 14 25 -2 3 0 6 5 7 4 0 27 9 52 21 25 11 54 22 64
24 11 2 145 4 298 4 249 0 277 -2 261 -15z"/>
<path d="M3412 3100 c4 -241 9 -264 82 -327 64 -57 134 -76 293 -81 242 -7
357 34 415 149 28 54 28 56 29 262 l1 208 -96 2 -96 2 0 -188 c0 -210 -6 -234
-62 -258 -23 -10 -75 -14 -165 -14 -204 0 -213 12 -211 283 l1 173 -98 2 -97
2 4 -215z m782 -11 c0 -202 -3 -241 -16 -233 -4 3 -8 -1 -8 -8 -1 -29 -73 -89
-125 -103 -16 -4 -37 -10 -45 -12 -41 -11 -271 -14 -325 -3 -33 6 -68 12 -77
13 -10 1 -18 5 -18 8 0 4 -20 17 -44 29 -32 17 -50 35 -67 69 -22 43 -24 59
-27 239 l-4 192 66 0 66 0 1 -37 c0 -21 4 -106 7 -190 l7 -151 36 -35 c44 -42
95 -52 246 -44 111 6 137 15 173 60 24 30 25 36 28 217 l4 185 61 -1 62 -2 -1
-193z"/>
<path d="M1820 3221 c0 -6 4 -13 10 -16 6 -3 7 1 4 9 -7 18 -14 21 -14 7z"/>
</g>
</svg>
